<svg width="34" height="34" fill="none" xmlns="http://www.w3.org/2000/svg"><path d="M5.632 30.5H17.85V11.58H5.63V30.5zm.788-18.131h10.642v17.343H6.42V12.369z" fill="#2A3135"/><path d="M7.208 18.675h9.066v-5.518H7.208v5.518zm.789-4.73h7.489v3.942h-7.49v-3.942zm.985 5.913h-.788v.788h.788v-.788zm1.577 0H9.77v.788h.789v-.788zm0 1.576H9.77v.788h.789v-.788zm1.576 0h-.788v.788h.788v-.788zm-3.153 0h-.788v.788h.788v-.788zm3.153-1.576h-.788v.788h.788v-.788zm1.577 0h-.788v.788h.788v-.788zm0 1.576h-.788v.788h.788v-.788zm1.577 0H14.5v.788h.789v-.788zm0-1.576H14.5v.788h.789v-.788zm-7.292 3.547h-.789v.788h.789v-.788zm1.576 0h-.788v.788h.788v-.788zm1.577 0h-.789v.788h.789v-.788zm-3.153 1.577h-.789v.788h.789v-.788zm1.576 0h-.788v.788h.788v-.788zm1.577 0h-.789v.788h.789v-.788zm-3.153 1.576h-.789v.789h.789v-.789zm1.576 0h-.788v.789h.788v-.789zm1.577 0h-.789v.789h.789v-.789zm-3.153 1.577h-.789v.788h.789v-.788zm1.576 0h-.788v.788h.788v-.788zm1.577 0h-.789v.788h.789v-.788zm.788.788h4.336v-2.365h-4.336v2.365zm.788-1.576h2.76v.788h-2.76v-.788zm3.548-3.942H14.5v.788h1.774v-.788zm-2.562 0h-1.774v.788h1.774v-.788zm2.562 1.577H14.5v.788h1.774v-.788zm-2.562 0h-1.774v.788h1.774v-.788z" fill="#2A3135"/><path d="M14.697 16.31H8.785v.789h5.912v-.789zm0-1.577h-.788v.789h.788v-.789z" fill="#2A3135"/><path d="M11.938 3.5v7.292h.788V4.288H27.31v21.088h-8.67v.788h9.46V3.5H11.94z" fill="#2A3135"/><path d="M17.456 5.865h-3.153v.788h3.153v-.788zm2.365 2.562h-5.518v.788h5.518v-.788zm5.913 0H20.61v.788h5.124v-.788zm-8.672 1.577h-2.759v.788h2.76v-.788zm5.124 0h-4.335v.788h4.335v-.788zm-1.971 1.576H18.64v.789h1.576v-.789zm5.519 1.577h-7.095v.788h7.095v-.788zm0 1.576h-7.095v.789h7.095v-.789zm0 1.577h-7.095v.789h7.095v-.789zm0 1.577h-7.095v.788h7.095v-.788zm0 5.124h-.789v.788h.789v-.788zm-1.577 0h-.788v.788h.788v-.788zm-1.577 0h-.788v.788h.788v-.788z" fill="#2A3135"/></svg>