<svg width="28" height="26" fill="none" xmlns="http://www.w3.org/2000/svg"><path d="M27.451 21.384a2.281 2.281 0 00-1.01-1.467 2.282 2.282 0 00-1.753-.306l-2.815.644v-1.15a11.12 11.12 0 001.57-1.86 10.905 10.905 0 001.542-3.631c.345-1.543.352-3.175.021-4.723a.527.527 0 00-1.031.221c.3 1.4.293 2.877-.02 4.271a9.856 9.856 0 01-1.392 3.28 9.29 9.29 0 01-.69.91v-5.845a.527.527 0 00-.527-.527h-4.172V5.569a.527.527 0 00-.525-.527l-4.699-.016h-.002a.526.526 0 00-.527.527v2.93H7.249a.527.527 0 00-.528.527v5.222H5.546v-.716a.527.527 0 00-.527-.527h-.54a9.97 9.97 0 01.762-5.975.528.528 0 00-.956-.445 10.965 10.965 0 00-.876 6.42H1.026a.527.527 0 00-.527.527v9.27c0 .29.236.527.527.527H5.02a.527.527 0 00.527-.527v-.502H7.53l8.036 3.152a6.355 6.355 0 003.902.244l6.299-1.6a2.294 2.294 0 001.684-2.696zm-6.632-9.129v8.242l-1.41.322a5.403 5.403 0 01-2.227.032l-.008-.001v-.8c.402-.6.536-1.36.325-2.055a2.368 2.368 0 00-.324-.667v-5.072h3.644zm-8.343-6.172l3.644.012v10.393l-2.037-.842-1.607-.666V6.083zm-4.7 3.455h3.644v5.005l-.654-.27a.526.526 0 00-.201-.04H7.776V9.537zm-3.284 12.72H1.555v-8.214h2.937v8.214zm21.015.8l-6.298 1.6a5.3 5.3 0 01-3.258-.204l-8.129-3.188a.527.527 0 00-.192-.036H5.546v-5.943h4.914l3.412 1.412 1.867.773c.66.274.977 1.05.706 1.709a1.36 1.36 0 01-1.593.847c-.005 0-.009-.002-.013-.003a1.34 1.34 0 01-.09-.026l-3.55-1.364a4472.283 4472.283 0 003.196 2.358l1.172.45c.354.137.707.272 1.075.367a6.371 6.371 0 003.003.037l1.819-.416.005-.002 3.454-.79c.329-.075.666-.017.95.165.283.182.477.464.546.794a1.242 1.242 0 01-.912 1.46zM7.244 3.961a.525.525 0 00.353-.136 10.024 10.024 0 013.25-1.96 10.045 10.045 0 014.072-.579 9.891 9.891 0 012.875.627.527.527 0 10.375-.986 10.942 10.942 0 00-3.18-.693 11.11 11.11 0 00-4.504.64A11.088 11.088 0 006.89 3.042a.527.527 0 00.354.92z" fill="#2A3135"/><path d="M19.215 7.725a.526.526 0 00.744-.052l4.338-4.995a.527.527 0 10-.796-.691L19.163 6.98a.527.527 0 00.052.744zm3.888-2.255c-.73 0-1.324.594-1.324 1.324 0 .73.594 1.324 1.324 1.324.73 0 1.324-.594 1.324-1.324 0-.73-.594-1.324-1.324-1.324zm0 1.593a.27.27 0 110-.539.27.27 0 010 .54zm-2.929-2.767c.73 0 1.324-.594 1.324-1.324a1.325 1.325 0 10-1.324 1.324zm0-1.593a.27.27 0 110 .539.27.27 0 010-.54zM5.369 5.2a.532.532 0 00.512.326.533.533 0 00.476-.366.532.532 0 00-.18-.58.533.533 0 00-.614-.02.532.532 0 00-.194.64z" fill="#2A3135"/></svg>