<svg width="28" height="28" fill="none" xmlns="http://www.w3.org/2000/svg"><path d="M27.05 7.7h-2.86A4.047 4.047 0 0021.65.5h-3.946A4.05 4.05 0 0014 2.916 4.05 4.05 0 0010.296.5H6.35a4.047 4.047 0 00-2.54 7.2H.95a.45.45 0 00-.45.45v4.5c0 .248.201.45.45.45h.9v13.95c0 .248.201.45.45.45h23.4a.45.45 0 00.45-.45V13.1h.9a.45.45 0 00.45-.45v-4.5a.45.45 0 00-.45-.45zm-6.198-6.263l.11-.017c.113-.013.228-.02.342-.02h.346a3.154 3.154 0 013.15 3.15 3.154 3.154 0 01-3.15 3.15h-1.057a4.045 4.045 0 00.084-6.23 2.57 2.57 0 01.175-.033zm-1.168.432A3.142 3.142 0 0118.05 7.7h-1.562l1.93-4.413a3.142 3.142 0 011.266-1.418zM16.5 8.6h3.073l2.125 4.251 1.475 2.949H21.65a.45.45 0 00-.36.18l-.895 1.192-2.14-4.707L16.5 8.6zm.648 3.6h-.897v-1.973l.897 1.973zM8.316 1.87c.558.33 1 .825 1.265 1.417L11.512 7.7H9.95a3.142 3.142 0 01-1.634-5.83zM11.5 8.6l-1.755 3.864-2.141 4.708-.895-1.192a.45.45 0 00-.36-.18H4.828l1.477-2.949L8.428 8.6h3.073zM3.2 4.55A3.154 3.154 0 016.35 1.4h.346c.114 0 .229.007.343.02l.109.017c.059.01.117.02.175.032A4.046 4.046 0 007.407 7.7H6.35A3.154 3.154 0 013.2 4.55zM1.4 12.2V8.6h6.022l-1.8 3.6H1.4zm10.35 14.4h-9V13.1h2.422l-1.475 2.949a.45.45 0 00.403.651h2.025l1.215 1.62a.45.45 0 00.769-.084l2.336-5.136h1.305v13.5zm0-14.4h-.897l.897-1.973V12.2zm-1.344-9.273A4.03 4.03 0 009.232 1.4h1.064a3.15 3.15 0 012.886 1.887l.327.749L12.2 7.027l-1.794-4.1zM15.35 26.6h-2.7v-18h2.7v18zM12.888 7.7l1.93-4.413A3.15 3.15 0 0117.705 1.4h1.066a4.03 4.03 0 00-1.174 1.527L15.506 7.7h-2.618zM25.25 26.6h-9V13.1h1.305l2.335 5.136a.45.45 0 00.77.084l1.215-1.62H23.9a.45.45 0 00.405-.651L22.828 13.1h2.422v13.5zm1.35-14.4h-4.222l-1.8-3.6H26.6v3.6z" fill="#2A3135"/></svg>